<?xml version="1.0" encoding="utf-8"?>
<!-- Generator: Adobe Illustrator 23.0.1, SVG Export Plug-In . SVG Version: 6.00 Build 0)  -->
<svg version="1.1" id="Warstwa_1" xmlns="http://www.w3.org/2000/svg" xmlns:xlink="http://www.w3.org/1999/xlink" x="0px" y="0px"
	 viewBox="0 0 133.3 15.4" style="enable-background:new 0 0 133.3 15.4;" xml:space="preserve">
<style type="text/css">
	.st0{fill-rule:evenodd;clip-rule:evenodd;fill:#FFFFFF;}
	.st1{fill:#FFFFFF;}
</style>
<path id="logo_1_" class="st0" d="M45.6,15.1c-0.6-1.6-1.1-3.1-1.6-4.4c-0.5-1.3-1-2.6-1.5-3.8c-0.5-1.2-1-2.3-1.4-3.4
	c-0.5-1.1-0.9-2.1-1.4-3.1h-3.1c-0.5,1-1,2.1-1.4,3.1c-0.5,1.1-0.9,2.2-1.4,3.4c-0.5,1.2-1,2.5-1.5,3.8c-0.5,1.3-1,2.8-1.6,4.4h3.4
	c0.2-0.5,0.3-1,0.5-1.6l0.6-1.6h5.8l0.6,1.6c0.2,0.5,0.4,1.1,0.5,1.6L45.6,15.1L45.6,15.1z M38.4,4.6c0.1,0.4,0.3,0.8,0.5,1.3
	c0.2,0.5,0.4,1,0.6,1.6c0.2,0.6,0.4,1.2,0.7,1.8H36c0.2-0.6,0.5-1.2,0.7-1.8c0.2-0.6,0.4-1.1,0.6-1.6s0.3-0.9,0.5-1.3
	c0.1-0.4,0.3-0.7,0.3-0.9C38.1,3.9,38.3,4.2,38.4,4.6z M56,15.1c0.7-0.2,1.4-0.4,2-0.8L57,11.6c-0.2,0.1-0.4,0.2-0.6,0.3
	c-0.3,0.1-0.5,0.2-0.8,0.3c-0.3,0.1-0.7,0.2-1,0.2c-0.4,0.1-0.9,0.1-1.3,0.1c-0.7,0-1.3-0.1-2-0.4c-0.5-0.2-1-0.6-1.3-1
	c-0.3-0.5-0.6-1-0.7-1.5c-0.2-0.6-0.2-1.3-0.2-1.9c0-0.7,0.1-1.5,0.3-2.2C49.7,5,50,4.5,50.4,4c0.4-0.4,0.8-0.6,1.3-0.8
	c0.5-0.2,1-0.3,1.5-0.3c0.7,0,1.4,0.1,2.1,0.3c0.5,0.1,1.1,0.4,1.6,0.6l1-2.7c-0.1-0.1-0.3-0.2-0.6-0.3c-0.3-0.1-0.6-0.3-1-0.4
	c-0.4-0.1-0.9-0.2-1.3-0.3C54.3,0.1,53.8,0,53.2,0c-1,0-2,0.2-3,0.5c-0.9,0.3-1.7,0.8-2.4,1.5c-0.7,0.7-1.2,1.5-1.6,2.4
	c-0.4,1-0.6,2.1-0.6,3.3c-0.1,2.1,0.5,4.1,1.9,5.7c1.5,1.4,3.4,2.1,5.5,2C54,15.4,55,15.3,56,15.1z M68.6,15.1
	c0.7-0.2,1.4-0.4,2-0.8l-0.9-2.7c-0.2,0.1-0.4,0.2-0.6,0.3c-0.3,0.1-0.5,0.2-0.8,0.3c-0.3,0.1-0.7,0.2-1,0.2
	c-0.4,0.1-0.9,0.1-1.3,0.1c-0.7,0-1.3-0.1-2-0.4c-0.5-0.2-1-0.6-1.3-1c-0.3-0.5-0.6-1-0.7-1.5c-0.2-0.6-0.2-1.3-0.2-1.9
	c0-0.7,0.1-1.5,0.3-2.2C62.3,5,62.6,4.5,63,4c0.4-0.4,0.8-0.6,1.3-0.8c0.5-0.2,1-0.3,1.5-0.3c0.7,0,1.4,0.1,2.1,0.3
	c0.5,0.1,1.1,0.4,1.6,0.6l1-2.7c-0.1-0.1-0.3-0.2-0.6-0.3c-0.3-0.1-0.6-0.3-1-0.4c-0.4-0.1-0.9-0.2-1.3-0.3C66.9,0.1,66.4,0,65.8,0
	c-1,0-2,0.2-3,0.5c-0.9,0.3-1.7,0.8-2.4,1.5c-0.7,0.7-1.2,1.5-1.6,2.4c-0.4,1-0.6,2.1-0.6,3.3c-0.1,2.1,0.5,4.1,1.9,5.7
	c1.5,1.4,3.4,2.1,5.5,2C66.6,15.4,67.6,15.3,68.6,15.1L68.6,15.1z M74.6,5.8c0.2-0.5,0.4-1.1,0.8-1.5c0.3-0.4,0.7-0.7,1.2-1
	c0.5-0.2,1.1-0.4,1.7-0.4c0.6,0,1.1,0.1,1.6,0.3c0.5,0.2,0.9,0.6,1.2,1c0.3,0.4,0.6,1,0.8,1.5c0.2,0.6,0.3,1.3,0.3,2
	c0,0.7-0.1,1.3-0.3,2c-0.2,0.5-0.4,1.1-0.8,1.5c-0.3,0.4-0.8,0.7-1.2,1c-1.1,0.5-2.2,0.5-3.3,0c-0.5-0.2-0.9-0.6-1.2-1
	c-0.3-0.4-0.6-1-0.8-1.5C74.2,8.4,74.2,7.1,74.6,5.8z M85,4.4c-0.3-0.9-0.9-1.7-1.6-2.4c-0.7-0.7-1.5-1.2-2.3-1.5
	C80.1,0.2,79.2,0,78.2,0c-1,0-1.9,0.2-2.8,0.5c-0.9,0.3-1.7,0.8-2.3,1.5c-0.7,0.7-1.2,1.5-1.6,2.4c-0.4,1.1-0.6,2.2-0.6,3.3
	c0,1.1,0.2,2.3,0.6,3.3c0.3,0.9,0.9,1.7,1.6,2.4c0.7,0.6,1.5,1.1,2.3,1.5c0.9,0.3,1.9,0.5,2.8,0.5c1,0,2-0.2,2.9-0.5
	c0.9-0.3,1.7-0.8,2.3-1.5c0.7-0.7,1.2-1.5,1.5-2.4c0.4-1.1,0.6-2.2,0.6-3.3C85.6,6.6,85.4,5.5,85,4.4L85,4.4z M13.7,4.6L13.7,4.6z
	 M16.9,4.2L16.9,4.2c0,0.1-0.1,0.2-0.1,0.2c0,0,0,0,0,0H16c-0.1,0-0.1-0.1-0.1-0.1c0,0,0,0,0,0c0.1-0.4,0.2-0.7,0.4-1.1
	c0.1-0.3,0.3-0.3,0.4,0C16.7,3.5,16.8,3.9,16.9,4.2L16.9,4.2L16.9,4.2z M17,2.3c0.9,0.3,1.6,1.2,1.6,2.2v0.4c0,0.2-0.1,0.3-0.3,0.3
	H16c-0.1,0-0.1,0.1-0.1,0.1c0,0,0,0,0,0c0,0.2,0.1,0.3,0.1,0.5c0.1,0.3,0.5,0.6,0.8,0.6c0.3,0,0.7-0.1,1-0.1h0
	c0.1,0,0.2,0.1,0.2,0.2c0,0,0,0,0,0c0,0.1-0.1,0.2-0.2,0.2c-0.9,0.4-2,0.4-3,0c-0.8-0.4-1.3-1.2-1.3-2l0,0V4.5c0-0.9,0.5-1.7,1.3-2
	C15.6,2.2,16.3,2.1,17,2.3L17,2.3L17,2.3z M13.1,1.7V1.2c0-0.2-0.1-0.4-0.3-0.4c-0.1,0-0.2,0-0.2,0.1c-0.8,0.6-1.7,1-2.6,1.1
	C9.7,2,9.6,2.1,9.6,2.3c0,0.2,0.1,0.3,0.3,0.3H10c0.2,0,0.4,0.2,0.4,0.4c0,0,0,0,0,0v3.8h2.7V3.2c0-0.1,0.1-0.3,0.2-0.3
	c0.2-0.1,0.4-0.3,0.5-0.5c0-0.2-0.2-0.4-0.4-0.4C13.2,2,13.1,1.9,13.1,1.7L13.1,1.7L13.1,1.7z M6.8,3L5.8,2.8
	c-0.1,0-0.2-0.2-0.2-0.3c0-0.1,0.1-0.2,0.2-0.2h2.3c0.7,0,1.3,0.6,1.3,1.4v3.2H7.3V6.6L6.5,6.8H6c-0.7,0-1.3-0.6-1.3-1.3
	c0-0.1,0-0.2,0-0.2C4.6,4.6,5,4,5.7,3.9c0.1,0,0.2,0,0.2,0h1.3V3.5C7.3,3.3,7.1,3.1,6.8,3L6.8,3L6.8,3z M7.3,6
	C6.8,5.9,6.5,5.6,6.3,5.3c0.2-0.4,0.5-0.6,0.9-0.8V6L7.3,6L7.3,6z M2.8,6.8L2.8,6.8c0.7,0,1.3-0.6,1.3-1.4c0-0.2,0-0.4-0.1-0.5
	L2.8,2.1c0,0,0-0.1,0-0.1c0-0.2,0.2-0.4,0.4-0.4h0.6c0.2,0,0.4-0.2,0.4-0.4S4,0.8,3.8,0.8H1.4c-0.7,0-1.3,0.6-1.3,1.3
	c0,0.2,0,0.4,0.1,0.5l1.2,2.8c0,0,0,0.1,0,0.1c0,0.2-0.2,0.4-0.4,0.4H0.5c-0.2,0-0.4,0.2-0.4,0.4c0,0.2,0.2,0.4,0.4,0.4L2.8,6.8
	L2.8,6.8z M19.3,1.8C19.1,1.9,19,2,19,2.2v4.7h2.7V1.2c0-0.2-0.2-0.4-0.4-0.4c-0.2,0-0.4,0.1-0.5,0.2C20.4,1.4,19.9,1.7,19.3,1.8
	L19.3,1.8L19.3,1.8z M23.9,1.5V0l-1.3,0.8L23.9,1.5L23.9,1.5z M24.2,1.5l1.3-0.8L24.2,0L24.2,1.5L24.2,1.5L24.2,1.5z M24.3,1.7
	l1.3,0.8V0.9L24.3,1.7L24.3,1.7L24.3,1.7z M24.2,1.9v1.5l1.3-0.8L24.2,1.9L24.2,1.9z M23.9,1.9l-1.3,0.8l1.3,0.8V1.9L23.9,1.9
	L23.9,1.9z M23.8,1.7l-1.3-0.8v1.5L23.8,1.7L23.8,1.7L23.8,1.7z M23.2,5.5c0.1,0,0.2,0,0.3,0.1c0.1,0.1,0.2,0.1,0.2,0.3
	c0.1,0.2,0.1,0.5,0,0.7c-0.1,0.1-0.1,0.2-0.2,0.3c-0.2,0.1-0.5,0.1-0.7,0c-0.1-0.1-0.2-0.1-0.2-0.3c-0.1-0.2-0.1-0.5,0-0.7
	c0.1-0.1,0.1-0.2,0.2-0.3C23,5.5,23.1,5.5,23.2,5.5L23.2,5.5L23.2,5.5z M23.2,5.6c-0.1,0-0.2,0-0.3,0.1c-0.1,0-0.2,0.1-0.2,0.2
	c-0.1,0.2-0.1,0.4,0,0.6c0.1,0.3,0.5,0.4,0.7,0.2c0.1,0,0.2-0.1,0.2-0.2c0.1-0.2,0.1-0.4,0-0.6c0-0.1-0.1-0.2-0.2-0.2
	C23.4,5.6,23.3,5.6,23.2,5.6L23.2,5.6L23.2,5.6z M22.9,6.5V5.8H23c0.1,0,0.2,0,0.2,0c0,0,0.1,0,0.1,0c0,0,0.1,0,0.1,0.1
	c0,0,0,0.1,0,0.1c0,0,0,0.1,0,0.1c0,0-0.1,0.1-0.1,0.1c0,0,0,0,0,0c0,0,0,0,0,0.1c0,0,0,0,0.1,0.1l0.1,0.1h-0.2l-0.1-0.1
	c0-0.1-0.1-0.1-0.1-0.1c0,0-0.1,0-0.1,0h0v0.3L22.9,6.5L22.9,6.5z M23,6.1L23,6.1c0.1,0,0.2,0,0.2,0c0,0,0,0,0,0c0,0,0,0,0-0.1
	c0,0,0,0,0-0.1c0,0,0,0,0,0c-0.1,0-0.1,0-0.2,0H23L23,6.1L23,6.1L23,6.1z"/>
<g>
	<path class="st1" d="M94.5,15.2L90.9,0.8h2l1.7,7.3c0.4,1.8,0.8,3.6,1.1,5h0c0.2-1.4,0.7-3.1,1.2-5l1.9-7.2h1.9l1.7,7.3
		c0.4,1.7,0.8,3.4,1,4.9h0c0.3-1.6,0.7-3.2,1.2-5l1.9-7.2h1.9l-4.1,14.4h-1.9l-1.8-7.5c-0.4-1.8-0.7-3.2-0.9-4.7h0
		c-0.3,1.4-0.6,2.8-1.1,4.7l-2,7.5H94.5z"/>
	<path class="st1" d="M110.5,10.4c0,2.5,1.7,3.6,3.5,3.6c1.3,0,2.2-0.2,2.9-0.5l0.3,1.3c-0.7,0.3-1.8,0.6-3.4,0.6
		c-3.2,0-5.1-2.1-5.1-5.2c0-3.1,1.8-5.6,4.8-5.6c3.4,0,4.3,3,4.3,4.9c0,0.4,0,0.7-0.1,0.9H110.5z M116,9c0-1.2-0.5-3-2.6-3
		c-1.9,0-2.7,1.7-2.9,3H116z"/>
	<path class="st1" d="M120,15.2c0-0.7,0.1-1.7,0.1-2.7V0.1h1.9v6.5h0c0.7-1.2,1.9-1.9,3.5-1.9c2.6,0,4.4,2.1,4.3,5.3
		c0,3.7-2.3,5.5-4.6,5.5c-1.5,0-2.7-0.6-3.5-1.9h-0.1l-0.1,1.7H120z M122,11.1c0,0.2,0,0.5,0.1,0.7c0.4,1.3,1.4,2.2,2.8,2.2
		c2,0,3.1-1.6,3.1-4c0-2.1-1.1-3.8-3.1-3.8c-1.3,0-2.5,0.9-2.9,2.3c0,0.2-0.1,0.5-0.1,0.8V11.1z"/>
</g>
</svg>
